{
    "asset" : {
        "generator" : "Khronos glTF Blender I/O v1.3.48",
        "version" : "2.0"
    },
    "scene" : 0,
    "scenes" : [
        {
            "name" : "Scene",
            "nodes" : [
                0
            ]
        }
    ],
    "nodes" : [
        {
            "mesh" : 0,
            "name" : "Rextra",
            "scale" : [
                0.5,
                0.10000002384185791,
                0.5
            ]
        }
    ],
    "meshes" : [
        {
            "name" : "Rextra",
            "primitives" : [
                {
                    "attributes" : {
                        "POSITION" : 0,
                        "NORMAL" : 1
                    },
                    "indices" : 2
                }
            ]
        }
    ],
    "accessors" : [
        {
            "bufferView" : 0,
            "componentType" : 5126,
            "count" : 1467,
            "max" : [
                8.930179595947266,
                1,
                8.05720043182373
            ],
            "min" : [
                -9.069820404052734,
                0,
                -7.942800045013428
            ],
            "type" : "VEC3"
        },
        {
            "bufferView" : 1,
            "componentType" : 5126,
            "count" : 1467,
            "type" : "VEC3"
        },
        {
            "bufferView" : 2,
            "componentType" : 5123,
            "count" : 2208,
            "type" : "SCALAR"
        }
    ],
    "bufferViews" : [
        {
            "buffer" : 0,
            "byteLength" : 17604,
            "byteOffset" : 0
        },
        {
            "buffer" : 0,
            "byteLength" : 17604,
            "byteOffset" : 17604
        },
        {
            "buffer" : 0,
            "byteLength" : 4416,
            "byteOffset" : 35208
        }
    ],
    "buffers" : [
        {
            "byteLength" : 39624,
            "uri" : "data:application/octet-stream;base64,"
        }
    ]
}
