<?xml version="1.0" standalone="no"?>
<!DOCTYPE svg PUBLIC "-//W3C//DTD SVG 20010904//EN"
 "http://www.w3.org/TR/2001/REC-SVG-20010904/DTD/svg10.dtd">
<svg version="1.0" xmlns="http://www.w3.org/2000/svg"
 width="97.000000pt" height="97.000000pt" viewBox="0 0 97.000000 97.000000"
 preserveAspectRatio="xMidYMid meet">
<metadata>
Created by potrace 1.11, written by Peter Selinger 2001-2013
</metadata>
<g transform="translate(0.000000,97.000000) scale(0.100000,-0.100000)"
fill="#000000" stroke="none">
<path d="M471 841 c-5 -9 -16 -51 -25 -93 -20 -91 -57 -147 -124 -188 -76 -47
-90 -59 -88 -74 2 -17 35 -56 45 -53 12 3 66 -37 107 -79 40 -41 55 -78 70
-171 7 -45 29 -73 59 -73 24 0 42 28 50 80 18 109 70 187 155 232 70 37 74 41
66 73 -5 18 -19 31 -49 44 -47 20 -113 81 -138 126 -16 29 -22 52 -34 125 -4
19 -13 42 -21 51 -19 21 -62 21 -73 0z"/>
</g>
</svg>
