{
    "asset" : {
        "generator" : "Khronos glTF Blender I/O v1.2.75",
        "version" : "2.0"
    },
    "scene" : 0,
    "scenes" : [
        {
            "name" : "Scene",
            "nodes" : [
                0,
                1,
                2,
                3,
                4
            ]
        }
    ],
    "nodes" : [
        {
            "mesh" : 0,
            "name" : "node_MeshObject-1264603136-PolyPaper21",
            "rotation" : [
                0,
                0,
                0.0708637610077858,
                0.9974860548973083
            ],
            "translation" : [
                0,
                0.2558389902114868,
                0
            ]
        },
        {
            "mesh" : 1,
            "name" : "node_MeshObject-692524032-PolyGem25",
            "rotation" : [
                0,
                0,
                0.0708637610077858,
                0.9974860548973083
            ],
            "translation" : [
                0,
                0.31628111004829407,
                0
            ]
        },
        {
            "mesh" : 2,
            "name" : "node_MeshObject750795776-PolyPaper8",
            "rotation" : [
                -0.0005737587343901396,
                -0.00807630829513073,
                0.07086143642663956,
                0.9974533915519714
            ],
            "translation" : [
                0.10573609173297882,
                0.18718746304512024,
                -0.0036092842929065228
            ]
        },
        {
            "name" : "Light",
            "rotation" : [
                0.16907575726509094,
                0.7558803558349609,
                -0.27217137813568115,
                0.570947527885437
            ],
            "translation" : [
                4.076245307922363,
                5.903861999511719,
                -1.0054539442062378
            ]
        },
        {
            "name" : "Camera",
            "rotation" : [
                0.483536034822464,
                0.33687159419059753,
                -0.20870360732078552,
                0.7804827094078064
            ],
            "translation" : [
                7.358891487121582,
                4.958309173583984,
                6.925790786743164
            ]
        }
    ],
    "materials" : [
        {
            "emissiveFactor" : [
                0,
                0,
                0
            ],
            "name" : "BlocksPaper",
            "pbrMetallicRoughness" : {
                "metallicFactor" : 0,
                "roughnessFactor" : 0.6000000238418579
            }
        },
        {
            "doubleSided" : true,
            "emissiveFactor" : [
                0,
                0,
                0
            ],
            "name" : "BlocksGem",
            "pbrMetallicRoughness" : {
                "metallicFactor" : 0,
                "roughnessFactor" : 0.10000000149011612
            }
        }
    ],
    "meshes" : [
        {
            "name" : "mesh_m0-PolyPaper21_-60794",
            "primitives" : [
                {
                    "attributes" : {
                        "POSITION" : 0,
                        "NORMAL" : 1,
                        "COLOR_0" : 2
                    },
                    "indices" : 3,
                    "material" : 0
                }
            ]
        },
        {
            "name" : "mesh_m1-PolyGem25_-60800",
            "primitives" : [
                {
                    "attributes" : {
                        "POSITION" : 4,
                        "NORMAL" : 5,
                        "COLOR_0" : 6
                    },
                    "indices" : 7,
                    "material" : 1
                }
            ]
        },
        {
            "name" : "mesh_m2-PolyPaper8_-60806",
            "primitives" : [
                {
                    "attributes" : {
                        "POSITION" : 8,
                        "NORMAL" : 9,
                        "COLOR_0" : 10
                    },
                    "indices" : 11,
                    "material" : 0
                }
            ]
        }
    ],
    "accessors" : [
        {
            "bufferView" : 0,
            "componentType" : 5126,
            "count" : 28839,
            "max" : [
                0.320405513048172,
                0.4342207908630371,
                0.3498585820198059
            ],
            "min" : [
                -0.30105987191200256,
                -0.25894081592559814,
                -0.29656434059143066
            ],
            "type" : "VEC3"
        },
        {
            "bufferView" : 1,
            "componentType" : 5126,
            "count" : 28839,
            "type" : "VEC3"
        },
        {
            "bufferView" : 2,
            "componentType" : 5126,
            "count" : 28839,
            "type" : "VEC4"
        },
        {
            "bufferView" : 3,
            "componentType" : 5123,
            "count" : 28941,
            "type" : "SCALAR"
        },
        {
            "bufferView" : 4,
            "componentType" : 5126,
            "count" : 2164,
            "max" : [
                0.08948385715484619,
                0.21815180778503418,
                0.13677017390727997
            ],
            "min" : [
                -0.17738595604896545,
                -0.20318812131881714,
                -0.14520993828773499
            ],
            "type" : "VEC3"
        },
        {
            "bufferView" : 5,
            "componentType" : 5126,
            "count" : 2164,
            "type" : "VEC3"
        },
        {
            "bufferView" : 6,
            "componentType" : 5126,
            "count" : 2164,
            "type" : "VEC4"
        },
        {
            "bufferView" : 7,
            "componentType" : 5123,
            "count" : 2196,
            "type" : "SCALAR"
        },
        {
            "bufferView" : 8,
            "componentType" : 5126,
            "count" : 6465,
            "max" : [
                0.11559164524078369,
                0.2992161512374878,
                0.20535483956336975
            ],
            "min" : [
                -0.1493341028690338,
                -0.19514727592468262,
                -0.17545241117477417
            ],
            "type" : "VEC3"
        },
        {
            "bufferView" : 9,
            "componentType" : 5126,
            "count" : 6465,
            "type" : "VEC3"
        },
        {
            "bufferView" : 10,
            "componentType" : 5126,
            "count" : 6465,
            "type" : "VEC4"
        },
        {
            "bufferView" : 11,
            "componentType" : 5123,
            "count" : 6465,
            "type" : "SCALAR"
        }
    ],
    "bufferViews" : [
        {
            "buffer" : 0,
            "byteLength" : 346068,
            "byteOffset" : 0
        },
        {
            "buffer" : 0,
            "byteLength" : 346068,
            "byteOffset" : 346068
        },
        {
            "buffer" : 0,
            "byteLength" : 461424,
            "byteOffset" : 692136
        },
        {
            "buffer" : 0,
            "byteLength" : 57882,
            "byteOffset" : 1153560
        },
        {
            "buffer" : 0,
            "byteLength" : 25968,
            "byteOffset" : 1211444
        },
        {
            "buffer" : 0,
            "byteLength" : 25968,
            "byteOffset" : 1237412
        },
        {
            "buffer" : 0,
            "byteLength" : 34624,
            "byteOffset" : 1263380
        },
        {
            "buffer" : 0,
            "byteLength" : 4392,
            "byteOffset" : 1298004
        },
        {
            "buffer" : 0,
            "byteLength" : 77580,
            "byteOffset" : 1302396
        },
        {
            "buffer" : 0,
            "byteLength" : 77580,
            "byteOffset" : 1379976
        },
        {
            "buffer" : 0,
            "byteLength" : 103440,
            "byteOffset" : 1457556
        },
        {
            "buffer" : 0,
            "byteLength" : 12930,
            "byteOffset" : 1560996
        }
    ],
    "buffers" : [
        {
            "byteLength" : 1573928,
            "uri" : "data:application/octet-stream;base64,"
        }
    ]
}
