{
    "asset" : {
        "generator" : "Khronos glTF Blender I/O v1.2.75",
        "version" : "2.0"
    },
    "scene" : 0,
    "scenes" : [
        {
            "name" : "Scene",
            "nodes" : [
                1,
                2,
                3,
                4,
                5,
                6,
                7,
                8,
                9,
                10,
                11,
                12
            ]
        }
    ],
    "nodes" : [
        {
            "mesh" : 0,
            "name" : "\u7acb\u65b9\u4f53.001",
            "scale" : [
                1.102185845375061,
                0.4589831829071045,
                1.249003291130066
            ],
            "translation" : [
                0,
                1.451211929321289,
                0
            ]
        },
        {
            "children" : [
                0
            ],
            "mesh" : 1,
            "name" : "\u7acb\u65b9\u4f53",
            "scale" : [
                1.5010420083999634,
                0.8652070760726929,
                1.850675344467163
            ]
        },
        {
            "name" : "\u30dd\u30a4\u30f3\u30c8",
            "translation" : [
                1.6365647315979004,
                0.24908939003944397,
                -1.5889427661895752
            ]
        },
        {
            "name" : "\u30dd\u30a4\u30f3\u30c8.001",
            "translation" : [
                1.9213824272155762,
                0.16939404606819153,
                -0.2007622867822647
            ]
        },
        {
            "name" : "\u30dd\u30a4\u30f3\u30c8.002",
            "translation" : [
                1.6419613361358643,
                0.12435609847307205,
                1.0196633338928223
            ]
        },
        {
            "name" : "\u30dd\u30a4\u30f3\u30c8.003",
            "translation" : [
                1.1023774147033691,
                0.08013974130153656,
                -1.8795499801635742
            ]
        },
        {
            "name" : "\u30dd\u30a4\u30f3\u30c8.004",
            "translation" : [
                1.7475475072860718,
                1.3381483554840088,
                0.03272025287151337
            ]
        },
        {
            "name" : "\u30dd\u30a4\u30f3\u30c8.005",
            "translation" : [
                1.6667546033859253,
                1.2714544534683228,
                -1.4709705114364624
            ]
        },
        {
            "name" : "\u30dd\u30a4\u30f3\u30c8.006",
            "translation" : [
                1.632707953453064,
                1.0419217348098755,
                1.363251805305481
            ]
        },
        {
            "name" : "\u30dd\u30a4\u30f3\u30c8.007",
            "translation" : [
                -0.8526479005813599,
                1.3085922002792358,
                2.48911452293396
            ]
        },
        {
            "name" : "\u30dd\u30a4\u30f3\u30c8.008",
            "translation" : [
                0.7133668661117554,
                1.2461169958114624,
                2.2904934883117676
            ]
        },
        {
            "name" : "\u30dd\u30a4\u30f3\u30c8.009",
            "translation" : [
                -0.9162731170654297,
                1.2893530130386353,
                -2.403487205505371
            ]
        },
        {
            "name" : "\u30dd\u30a4\u30f3\u30c8.010",
            "translation" : [
                0.6730903387069702,
                1.2160491943359375,
                -2.2939224243164062
            ]
        }
    ],
    "materials" : [
        {
            "doubleSided" : true,
            "emissiveFactor" : [
                0,
                0,
                0
            ],
            "name" : "convinience",
            "pbrMetallicRoughness" : {
                "baseColorTexture" : {
                    "index" : 0,
                    "texCoord" : 0
                },
                "metallicFactor" : 0,
                "roughnessFactor" : 0.5215053558349609
            }
        },
        {
            "doubleSided" : true,
            "emissiveFactor" : [
                0,
                0,
                0
            ],
            "name" : "tenpo",
            "pbrMetallicRoughness" : {
                "baseColorTexture" : {
                    "index" : 1,
                    "texCoord" : 0
                },
                "metallicFactor" : 0,
                "roughnessFactor" : 0.5
            }
        }
    ],
    "meshes" : [
        {
            "name" : "\u7acb\u65b9\u4f53.001",
            "primitives" : [
                {
                    "attributes" : {
                        "POSITION" : 0,
                        "NORMAL" : 1,
                        "TEXCOORD_0" : 2
                    },
                    "indices" : 3,
                    "material" : 0
                }
            ]
        },
        {
            "name" : "\u7acb\u65b9\u4f53",
            "primitives" : [
                {
                    "attributes" : {
                        "POSITION" : 4,
                        "NORMAL" : 5,
                        "TEXCOORD_0" : 6
                    },
                    "indices" : 7,
                    "material" : 1
                }
            ]
        }
    ],
    "textures" : [
        {
            "source" : 0
        },
        {
            "source" : 0
        }
    ],
    "images" : [
        {
            "bufferView" : 4,
            "mimeType" : "image/jpeg",
            "name" : "nc98762"
        }
    ],
    "accessors" : [
        {
            "bufferView" : 0,
            "componentType" : 5126,
            "count" : 78,
            "max" : [
                1.0220375061035156,
                1.5524886846542358,
                1
            ],
            "min" : [
                -1,
                -1,
                -1
            ],
            "type" : "VEC3"
        },
        {
            "bufferView" : 1,
            "componentType" : 5126,
            "count" : 78,
            "type" : "VEC3"
        },
        {
            "bufferView" : 2,
            "componentType" : 5126,
            "count" : 78,
            "type" : "VEC2"
        },
        {
            "bufferView" : 3,
            "componentType" : 5123,
            "count" : 138,
            "type" : "SCALAR"
        },
        {
            "bufferView" : 5,
            "componentType" : 5126,
            "count" : 50,
            "max" : [
                1.0541963577270508,
                1,
                1
            ],
            "min" : [
                -1,
                -1.0133215188980103,
                -1
            ],
            "type" : "VEC3"
        },
        {
            "bufferView" : 6,
            "componentType" : 5126,
            "count" : 50,
            "type" : "VEC3"
        },
        {
            "bufferView" : 7,
            "componentType" : 5126,
            "count" : 50,
            "type" : "VEC2"
        },
        {
            "bufferView" : 8,
            "componentType" : 5123,
            "count" : 78,
            "type" : "SCALAR"
        }
    ],
    "bufferViews" : [
        {
            "buffer" : 0,
            "byteLength" : 936,
            "byteOffset" : 0
        },
        {
            "buffer" : 0,
            "byteLength" : 936,
            "byteOffset" : 936
        },
        {
            "buffer" : 0,
            "byteLength" : 624,
            "byteOffset" : 1872
        },
        {
            "buffer" : 0,
            "byteLength" : 276,
            "byteOffset" : 2496
        },
        {
            "buffer" : 0,
            "byteLength" : 695085,
            "byteOffset" : 2772
        },
        {
            "buffer" : 0,
            "byteLength" : 600,
            "byteOffset" : 697860
        },
        {
            "buffer" : 0,
            "byteLength" : 600,
            "byteOffset" : 698460
        },
        {
            "buffer" : 0,
            "byteLength" : 400,
            "byteOffset" : 699060
        },
        {
            "buffer" : 0,
            "byteLength" : 156,
            "byteOffset" : 699460
        }
    ],
    "buffers" : [
        {
            "byteLength" : 699616,
            "uri" : "data:application/octet-stream;base64,"
        }
    ]
}
